<?xml version="1.0" encoding="UTF-8" standalone="no"?>
<!-- Created with Inkscape (http://www.inkscape.org/) -->
<svg xmlns:dc="http://purl.org/dc/elements/1.1/" xmlns:cc="http://creativecommons.org/ns#" xmlns:rdf="http://www.w3.org/1999/02/22-rdf-syntax-ns#" xmlns:svg="http://www.w3.org/2000/svg" xmlns="http://www.w3.org/2000/svg" xmlns:sodipodi="http://sodipodi.sourceforge.net/DTD/sodipodi-0.dtd" xmlns:inkscape="http://www.inkscape.org/namespaces/inkscape" width="383" height="110" id="svg3769" version="1.1" inkscape:version="0.48.4 r9939" sodipodi:docname="logo.svg">
  <defs id="defs3771"/>
  <sodipodi:namedview id="base" pagecolor="#ffffff" bordercolor="#666666" borderopacity="1.0" inkscape:pageopacity="0.0" inkscape:pageshadow="2" inkscape:zoom="1.4" inkscape:cx="375" inkscape:cy="-26.987682" inkscape:document-units="px" inkscape:current-layer="layer1" showgrid="false" inkscape:window-width="1920" inkscape:window-height="1028" inkscape:window-x="-8" inkscape:window-y="-8" inkscape:window-maximized="1"/>
  <metadata id="metadata3774">
    <rdf:RDF>
      <cc:Work rdf:about="">
        <dc:format>image/svg+xml</dc:format>
        <dc:type rdf:resource="http://purl.org/dc/dcmitype/StillImage"/>
        <dc:title/>
      </cc:Work>
    </rdf:RDF>
  </metadata>
  <g inkscape:label="Layer 1" inkscape:groupmode="layer" id="layer1" transform="translate(0,-942.36205)">
    <path id="path3090" style="fill:#ffffff;fill-opacity:1;fill-rule:nonzero;stroke:none" d="m 224.89501,1017.5419 -22.0851,0 0,-11.2512 22.0851,0 0,11.2512 z m 33.8004,-67.39706 -10.9371,-0.1557 -0.1173,67.69556 -11.2698,0.019 -0.0189,-22.5189 -22.5,-0.02 -22.48111,22.4799 0.0198,11.2701 123.71038,0.02 11.241,-11.25 -67.49007,0.039 -0.1569,-67.57856 z m 112.65597,67.18826 -11.25,0 0,-11.25 11.25,0 0,11.25 z m -11.211,-22.1295 -0.039,-44.98016 -11.328,-0.0786 0.099,45.03986 -78.77007,0 0.0387,11.25 56.21037,-0.04 0,11.2794 11.25,-11.2593 11.25,0 0,22.5 11.232,0.039 22.51801,-22.5588 0.021,-11.2101 -22.48201,0.019 z m -33.789,22.4811 0,-0.01 -0.009,0.01 0.009,0 z m 56.25001,-67.43426 -10.83301,0 0,32.91686 10.83301,0 0,-32.91686" inkscape:connector-curvature="0"/>
    <path id="path3092" style="fill:#ffffff;fill-opacity:1;fill-rule:nonzero;stroke:none" d="m 236.66401,978.42704 c 0,3.19226 -2.5887,5.78066 -5.7807,5.78066 -3.1935,0 -5.781,-2.5884 -5.781,-5.78066 0,-3.1935 2.5875,-5.7822 5.781,-5.7822 3.192,0 5.7807,2.5887 5.7807,5.7822" inkscape:connector-curvature="0"/>
    <path id="path3094" style="fill:#ffffff;fill-opacity:1;fill-rule:nonzero;stroke:none" d="m 236.35231,955.92704 c 0,3.1923 -2.5887,5.7807 -5.7819,5.7807 -3.1935,0 -5.781,-2.5884 -5.781,-5.7807 0,-3.1935 2.5875,-5.7822 5.781,-5.7822 3.1932,0 5.7819,2.5887 5.7819,5.7822" inkscape:connector-curvature="0"/>
    <path id="path3096" style="fill:#ffffff;fill-opacity:1;fill-rule:nonzero;stroke:none" d="m 338.54038,1023.427 c 0,3.1932 -2.589,5.7807 -5.784,5.7807 -3.192,0 -5.778,-2.5875 -5.778,-5.7807 0,-3.1935 2.586,-5.7822 5.778,-5.7822 3.195,0 5.784,2.5887 5.784,5.7822" inkscape:connector-curvature="0"/>
    <path id="path3098" style="fill:#ffffff;fill-opacity:1;fill-rule:nonzero;stroke:none" d="m 191.3523,995.0419 11.25001,0 0,-34.37456 -11.25001,0 0,34.37456 z" inkscape:connector-curvature="0"/>
    <path id="path3100" style="fill:#ffffff;fill-opacity:1;fill-rule:nonzero;stroke:none" d="m 45.622802,976.75934 c 0,3.1935 -2.5887,5.78216 -5.7822,5.78216 -3.192,0 -5.7807,-2.58866 -5.7807,-5.78216 0,-3.1932 2.5887,-5.7807 5.7807,-5.7807 3.1935,0 5.7822,2.5875 5.7822,5.7807" inkscape:connector-curvature="0"/>
    <path id="path3102" style="fill:#ffffff;fill-opacity:1;fill-rule:nonzero;stroke:none" d="m 45.309902,954.25934 c 0,3.1935 -2.5887,5.7822 -5.781,5.7822 -3.1932,0 -5.7819,-2.5887 -5.7819,-5.7822 0,-3.192 2.5887,-5.7807 5.7819,-5.7807 3.1923,0 5.781,2.5887 5.781,5.7807" inkscape:connector-curvature="0"/>
    <path id="path3104" style="fill:#ffffff;fill-opacity:1;fill-rule:nonzero;stroke:none" d="m 130.3095,961.13474 c 3.1944,0 5.7819,2.5887 5.7819,5.781 0,3.1932 -2.5875,5.7819 -5.7819,5.7819 -3.1935,0 -5.781,-2.5887 -5.781,-5.7819 0,-3.1923 2.5875,-5.781 5.781,-5.781" inkscape:connector-curvature="0"/>
    <path id="path3106" style="fill:#ffffff;fill-opacity:1;fill-rule:nonzero;stroke:none" d="m 107.8095,961.44764 c 3.192,0 5.7819,2.5887 5.7819,5.781 0,3.1932 -2.5899,5.7807 -5.7819,5.7807 -3.1923,0 -5.781,-2.5875 -5.781,-5.7807 0,-3.1923 2.5887,-5.781 5.781,-5.781" inkscape:connector-curvature="0"/>
    <path id="path3108" style="fill:#ffffff;fill-opacity:1;fill-rule:nonzero;stroke:none" d="m 84.060303,982.6972 c 3.192,0 5.7807,2.5887 5.7807,5.781 0,3.1932 -2.5887,5.7819 -5.7807,5.7819 -3.1935,0 -5.7822,-2.5887 -5.7822,-5.7819 0,-3.1923 2.5887,-5.781 5.7822,-5.781" inkscape:connector-curvature="0"/>
    <path id="path3110" style="fill:#ffffff;fill-opacity:1;fill-rule:nonzero;stroke:none" d="m 61.560303,1039.2589 c 3.1932,0 5.7807,2.5887 5.7807,5.781 0,3.1932 -2.5875,5.7807 -5.7807,5.7807 -3.1935,0 -5.7822,-2.5875 -5.7822,-5.7807 0,-3.1923 2.5887,-5.781 5.7822,-5.781" inkscape:connector-curvature="0"/>
    <path id="path3112" style="fill:#ffffff;fill-opacity:1;fill-rule:nonzero;stroke:none" d="m 39.060302,1039.5718 c 3.192,0 5.7807,2.5875 5.7807,5.781 0,3.1932 -2.5887,5.7807 -5.7807,5.7807 -3.1935,0 -5.7822,-2.5875 -5.7822,-5.7807 0,-3.1935 2.5887,-5.781 5.7822,-5.781" inkscape:connector-curvature="0"/>
    <path id="path3114" style="fill:#ffffff;fill-opacity:1;fill-rule:nonzero;stroke:none" d="m 123.6624,1017.9238 -10.938,0 0,-22.8117 10.938,0 0,22.8117 z m 56.5431,-56.47616 -11.3532,-0.0528 0,56.24996 -11.25,0 0,-11.6613 -11.25,0 0,11.6565 -11.1666,0 0.0387,-33.75 -11.2689,0 -22.5198,22.4799 0.0585,11.2701 -11.268897,0.02 -0.0396,-11.2899 -11.2302,0 0,11.2701 -11.25,-0.02 0.0198,-22.4988 -11.2896,0 0.0396,22.5189 -11.269801,-0.02 0,-22.4799 -22.4613,-0.019 -11.2593,11.2488 22.7835,0 0,11.25 -22.8129,0 0,-11.2206 -11.2300796,11.2206 0,11.2701 146.1268776,0.055 0,0.012 11.25,0 0,-0.01 22.5,0.01 0.1032,-67.49996" inkscape:connector-curvature="0"/>
    <path id="path3116" style="fill:#ffffff;fill-opacity:1;fill-rule:nonzero;stroke:none" d="m 158.1228,989.6758 c 0,3.1935 -2.5899,5.781 -5.7822,5.781 -3.192,0 -5.7807,-2.5875 -5.7807,-5.781 0,-3.1935 2.5887,-5.7819 5.7807,-5.7819 3.1923,0 5.7822,2.5884 5.7822,5.7819" inkscape:connector-curvature="0"/>
    <path id="path3118" style="fill:#ffffff;fill-opacity:1;fill-rule:nonzero;stroke:none" d="m 157.8099,967.17584 c 0,3.1935 -2.5887,5.7819 -5.781,5.7819 -3.1932,0 -5.7819,-2.5884 -5.7819,-5.7819 0,-3.1923 2.5887,-5.781 5.7819,-5.781 3.1923,0 5.781,2.5887 5.781,5.781" inkscape:connector-curvature="0"/>
  </g>
</svg>